# File created by Blade
# Date/Time:  Fri Jan 16 17:25:32 2015
#---------------------------------------------------------
:version 1.10
:name HOM
:units
  mass 1.0
  length 1.000000
  angle deg
:documentation
     Acclaim Skeleton File
:root
   axis xyz
   order TX TY TZ RX RY RZ
   position 0.000000 0.000000 0.000000
   orientation 0 0 0
:bonedata
   begin
      id 1
      name Spine_dum
      direction 0.000000 1.000000 0.000000
      length 7.170412
      axis 0.0 0.0 0.0 xyz
   end
   begin
      id 2
      name LeftUpLeg_dum
      direction 1.000000 0.000000 0.000000
      length 4.318350
      axis 0.0 0.0 0.0 xyz
   end
   begin
      id 3
      name RightUpLeg_dum
      direction -1.000000 0.000000 0.000000
      length 4.318350
      axis 0.0 0.0 0.0 xyz
   end
   begin
      id 4
      name Spine
      direction 0.000000 1.000000 0.000000
      length 0.000000
      axis 0.0 0.0 0.0 xyz
      dof rx ry rz
   end
   begin
      id 5
      name Spine_dum1
      direction 0.000000 1.000000 0.000000
      length 14.276153
      axis 0.0 0.0 0.0 xyz
   end
   begin
      id 6
      name Spine_dum2
      direction 0.000000 1.000000 0.000000
      length 10.718243
      axis 0.0 0.0 0.0 xyz
   end
   begin
      id 7
      name Spine_dum3
      direction 0.000000 1.000000 0.000000
      length 10.718243
      axis 0.0 0.0 0.0 xyz
   end
   begin
      id 8
      name Head
      direction 0.000000 1.000000 0.000000
      length 4.527550
      axis 0.0 0.0 0.0 xyz
      dof rx ry rz
   end
   begin
      id 9
      name LeftShoulder
      direction 1.000000 0.000000 0.000000
      length 7.058872
      axis 0.0 0.0 -90.0 xyz
      dof rx ry rz
   end
   begin
      id 10
      name LeftArm
      direction 1.000000 0.000000 0.000000
      length 10.955525
      axis 0.0 0.0 -90.0 xyz
      dof rx ry rz
   end
   begin
      id 11
      name LeftForeArm
      direction 1.000000 0.000000 0.000000
      length 8.193716
      axis 0.0 0.0 -90.0 xyz
      dof ry rz rx
   end
   begin
      id 12
      name LeftHand
      direction 0.000000 0.000000 0.000000
      length 0.000000
      axis 0.0 0.0 -90.0 xyz
      dof rx ry rz
   end
   begin
      id 13
      name LeftHand_dum1
      direction 0.000000 0.000000 0.000000
      length 0.000000
      axis 0.0 0.0 -90.0 xyz
   end
   begin
      id 14
      name LeftHand_dum2
      direction 1.000000 0.000000 0.000000
      length 3.937000
      axis 0.0 0.0 -90.0 xyz
   end
   begin
      id 15
      name LeftHandThumb1
      direction 0.000000 0.000000 1.000000
      length 3.937000
      axis 0.0 0.0 -90.0 xyz
      dof rx rz ry
   end
   begin
      id 16
      name RightShoulder
      direction -1.000000 0.000000 0.000000
      length 7.058872
      axis 0.0 0.0 90.0 xyz
      dof rx ry rz
   end
   begin
      id 17
      name RightArm
      direction -1.000000 0.000000 0.000000
      length 10.955525
      axis 0.0 0.0 90.0 xyz
      dof rx ry rz
   end
   begin
      id 18
      name RightForeArm
      direction -1.000000 0.000000 0.000000
      length 8.193716
      axis 0.0 0.0 90.0 xyz
      dof ry rz rx
   end
   begin
      id 19
      name RightHand
      direction 0.000000 0.000000 0.000000
      length 0.000000
      axis 0.0 0.0 90.0 xyz
      dof rx ry rz
   end
   begin
      id 20
      name RightHand_dum1
      direction 0.000000 0.000000 0.000000
      length 0.000000
      axis 0.0 0.0 90.0 xyz
   end
   begin
      id 21
      name RightHand_dum2
      direction -1.000000 0.000000 0.000000
      length 3.937000
      axis 0.0 0.0 90.0 xyz
   end
   begin
      id 22
      name RightHandThumb1
      direction 0.000000 0.000000 1.000000
      length 3.937000
      axis 0.0 0.0 90.0 xyz
      dof rx rz ry
   end
   begin
      id 23
      name LeftUpLeg
      direction 0.000000 -1.000000 0.000000
      length 17.323638
      axis 0.0 0.0 0.0 xyz
      dof rx ry rz
   end
   begin
      id 24
      name LeftLeg
      direction 0.000000 -1.000000 0.000000
      length 16.270368
      axis 0.0 0.0 0.0 xyz
      dof rx ry rz
   end
   begin
      id 25
      name LeftFoot
      direction 0.000000 -0.258819 0.965926
      length 4.922846
      axis 15.0 0.0 0.0 xyz
      dof rx ry rz
   end
   begin
      id 26
      name LeftToeBase
      direction 0.000000 0.000000 1.000000
      length 2.952750
      axis 0.0 0.0 0.0 xyz
      dof rx ry rz
   end
   begin
      id 27
      name RightUpLeg
      direction 0.000000 -1.000000 0.000000
      length 17.323638
      axis 0.0 0.0 0.0 xyz
      dof rx ry rz
   end
   begin
      id 28
      name RightLeg
      direction 0.000000 -1.000000 0.000000
      length 16.270368
      axis 0.0 0.0 0.0 xyz
      dof rx ry rz
   end
   begin
      id 29
      name RightFoot
      direction 0.000000 -0.258819 0.965926
      length 4.922846
      axis 15.0 0.0 0.0 xyz
      dof rx ry rz
   end
   begin
      id 30
      name RightToeBase
      direction 0.000000 0.000000 1.000000
      length 2.952750
      axis 0.0 0.0 0.0 xyz
      dof rx ry rz
   end
:hierarchy
   begin
      root Spine_dum LeftUpLeg_dum RightUpLeg_dum
      Spine_dum Spine
      LeftUpLeg_dum LeftUpLeg
      RightUpLeg_dum RightUpLeg
      Spine Spine_dum1 Spine_dum2 Spine_dum3
      Spine_dum1 Head
      Spine_dum2 LeftShoulder
      Spine_dum3 RightShoulder
      LeftShoulder LeftArm
      LeftArm LeftForeArm
      LeftForeArm LeftHand
      LeftHand LeftHand_dum1 LeftHand_dum2
      LeftHand_dum1 LeftHandThumb1
      RightShoulder RightArm
      RightArm RightForeArm
      RightForeArm RightHand
      RightHand RightHand_dum1 RightHand_dum2
      RightHand_dum1 RightHandThumb1
      LeftUpLeg LeftLeg
      LeftLeg LeftFoot
      LeftFoot LeftToeBase
      RightUpLeg RightLeg
      RightLeg RightFoot
      RightFoot RightToeBase
   end

# File created by Blade
# Date/Time:  Fri Jan 16 17:25:22 2015
# Frame Rate: 120.000 fps
#------------------------------------------------------
:FULLY-SPECIFIED
:DEGREES
1002
root -5.727212 35.243075 -10.800362 -2.923074 -9.760467 -6.209100
Spine 4.127970 1.491244 9.487277
Head 3.022447 6.780616 -6.709634
LeftShoulder -18.507977 16.104577 -16.533490
LeftArm 26.877619 19.925344 -65.462482
LeftForeArm 12.006344 -0.000000 15.206995
LeftHand 1.780010 -0.000000 -3.791042
LeftHandThumb1 -26.253704 0.000000 33.147579
RightShoulder -1.010572 -3.978408 2.697525
RightArm 11.458520 -36.701213 65.676811
RightForeArm -26.614889 -0.000000 23.173111
RightHand 1.768644 -0.000000 8.128957
RightHandThumb1 -24.326973 -0.000000 -32.862282
LeftUpLeg 12.797724 17.344015 8.393249
LeftLeg -9.158226 -0.000000 0.000000
LeftFoot -14.668293 29.525196 -7.257981
LeftToeBase 23.079487 -0.000000 -0.000000
RightUpLeg 8.002920 -4.336589 2.942897
RightLeg -4.373423 -0.000000 0.000000
RightFoot -3.121999 -22.250556 5.238127
RightToeBase 13.785617 -0.000000 -0.000000
1003
root -5.729632 35.242649 -10.797209 -2.906522 -9.754616 -6.212481
Spine 4.050551 1.490555 9.489169
Head 3.241875 6.845977 -6.661264
LeftShoulder -18.489204 16.089608 -16.550359
LeftArm 26.852466 19.848583 -65.480990
LeftForeArm 11.917703 0.000000 15.090277
LeftHand 1.746478 -0.000000 -4.004816
LeftHandThumb1 -26.253704 0.000000 33.147579
RightShoulder -1.013771 -3.967378 2.696746
RightArm 11.422351 -36.694903 65.714479
RightForeArm -26.665821 -0.000000 23.164687
RightHand 1.766308 -0.000000 8.161255
RightHandThumb1 -24.326973 -0.000000 -32.862282
LeftUpLeg 12.788938 17.323862 8.393184
LeftLeg -9.163230 -0.000000 0.000000
LeftFoot -14.673878 29.541538 -7.250641
LeftToeBase 23.116103 -0.000000 -0.000000
RightUpLeg 7.998386 -4.325529 2.951929
RightLeg -4.383639 -0.000000 0.000000
RightFoot -3.132301 -22.263670 5.246574
RightToeBase 13.775225 -0.000000 -0.000000
1004
root -5.731702 35.242414 -10.793207 -2.903962 -9.743825 -6.216420
Spine 3.984499 1.463824 9.494608
Head 3.490107 6.944770 -6.618359
LeftShoulder -18.485254 16.080526 -16.580792
LeftArm 26.843013 19.735209 -65.506678
LeftForeArm 11.926092 -0.000000 14.971559
LeftHand 1.718176 -0.000000 -4.084671
LeftHandThumb1 -26.253704 0.000000 33.147579
RightShoulder -1.005298 -3.980270 2.686116
RightArm 11.422315 -36.688879 65.740207
RightForeArm -26.702311 -0.000000 23.151910
RightHand 1.767361 -0.000000 8.172096
RightHandThumb1 -24.326973 -0.000000 -32.862282
LeftUpLeg 12.790762 17.289415 8.394915
LeftLeg -9.159064 -0.000000 0.000000
LeftFoot -14.691284 29.575298 -7.235377
LeftToeBase 23.176097 -0.000000 -0.000000
RightUpLeg 8.005995 -4.311497 2.958496
RightLeg -4.384397 -0.000000 0.000000
RightFoot -3.141286 -22.285802 5.248984
RightToeBase 13.811204 -0.000000 -0.000000
1005
root -5.733943 35.242579 -10.790058 -2.907546 -9.744085 -6.214953
Spine 3.929008 1.459801 9.490581
Head 3.755453 7.039231 -6.577820
LeftShoulder -18.467687 16.083778 -16.597893
LeftArm 26.839816 19.629469 -65.528948
LeftForeArm 11.977349 -0.000000 14.883592
LeftHand 1.668839 -0.000000 -4.111857
LeftHandThumb1 -26.253704 0.000000 33.147579
RightShoulder -1.003927 -3.998165 2.690287
RightArm 11.437274 -36.721371 65.726328
RightForeArm -26.647024 -0.000000 23.152838
RightHand 1.855269 -0.000000 8.199049
RightHandThumb1 -24.326973 -0.000000 -32.862282
LeftUpLeg 12.793415 17.320706 8.405055
LeftLeg -9.148848 -0.000000 0.000000
LeftFoot -14.687391 29.531820 -7.259218
LeftToeBase 23.115271 -0.000000 -0.000000
RightUpLeg 8.013695 -4.276319 2.963709
RightLeg -4.381741 -0.000000 0.000000
RightFoot -3.158263 -22.323359 5.261661
RightToeBase 13.828647 -0.000000 -0.000000
1006
root -5.736446 35.242812 -10.785725 -2.916129 -9.746477 -6.213579
Spine 3.878635 1.461513 9.486853
Head 4.031215 7.116336 -6.536007
LeftShoulder -18.453846 16.112219 -16.614382
LeftArm 26.861759 19.532896 -65.539513
LeftForeArm 12.088708 -0.000000 14.822854
LeftHand 1.543666 -0.000000 -4.091740
LeftHandThumb1 -26.253704 0.000000 33.147579
RightShoulder -1.011791 -3.816630 2.691740
RightArm 11.198452 -36.709804 65.890404
RightForeArm -26.757659 -0.000000 23.163594
RightHand 1.948437 -0.000000 8.288492
RightHandThumb1 -24.326973 -0.000000 -32.862282
LeftUpLeg 12.810169 17.319661 8.412114
LeftLeg -9.147978 -0.000000 0.000000
LeftFoot -14.693081 29.526693 -7.279230
LeftToeBase 23.100370 -0.000000 -0.000000
RightUpLeg 8.023281 -4.253336 2.965708
RightLeg -4.366960 -0.000000 0.000000
RightFoot -3.174006 -22.335540 5.275809
RightToeBase 13.810907 -0.000000 -0.000000
1007
root -5.739558 35.242852 -10.780535 -2.942441 -9.736134 -6.211536
Spine 3.849177 1.430247 9.475913
Head 4.285872 7.246478 -6.462227
LeftShoulder -18.470217 16.117021 -16.626311
LeftArm 26.887021 19.472318 -65.541051
LeftForeArm 12.192961 -0.000000 14.768040
LeftHand 1.474836 -0.000000 -4.192746
LeftHandThumb1 -26.253704 0.000000 33.147579
RightShoulder -1.009369 -3.839327 2.700459
RightArm 11.210256 -36.712633 65.873327
RightForeArm -26.743327 -0.000000 23.209331
RightHand 1.982249 -0.000000 8.222649
RightHandThumb1 -24.326973 -0.000000 -32.862282
LeftUpLeg 12.833842 17.317702 8.424052
LeftLeg -9.126026 -0.000000 0.000000
LeftFoot -14.714618 29.512006 -7.294107
LeftToeBase 23.099413 -0.000000 -0.000000
RightUpLeg 8.054968 -4.247442 2.967761
RightLeg -4.359162 -0.000000 0.000000
RightFoot -3.196433 -22.357148 5.274565
RightToeBase 13.827465 -0.000000 -0.000000
1008
root -5.742545 35.242851 -10.775193 -2.985743 -9.733223 -6.209406
Spine 3.845962 1.417857 9.463653
Head 4.542615 7.357164 -6.401996
LeftShoulder -18.461544 16.126374 -16.621720
LeftArm 26.904332 19.414677 -65.550452
LeftForeArm 12.277724 -0.000000 14.748291
LeftHand 1.406479 -0.000000 -4.298321
LeftHandThumb1 -26.253704 0.000000 33.147579
RightShoulder -1.017373 -3.854246 2.709624
RightArm 11.220274 -36.704615 65.856124
RightForeArm -26.761869 -0.000000 23.265955
RightHand 2.003305 -0.000000 8.237019
RightHandThumb1 -24.326973 -0.000000 -32.862282
LeftUpLeg 12.876234 17.293459 8.437380
LeftLeg -9.106552 -0.000000 0.000000
LeftFoot -14.726844 29.527785 -7.306566
LeftToeBase 23.081604 -0.000000 -0.000000
RightUpLeg 8.098547 -4.245390 2.965433
RightLeg -4.340602 -0.000000 0.000000
RightFoot -3.207149 -22.362715 5.255512
RightToeBase 13.806808 -0.000000 -0.000000
1009
root -5.745454 35.243173 -10.769062 -3.031772 -9.732891 -6.201168
Spine 3.848062 1.403470 9.452355
Head 4.787938 7.474051 -6.361571
LeftShoulder -18.470116 16.135720 -16.630056
LeftArm 26.935493 19.367853 -65.530420
LeftForeArm 12.604711 -0.000000 14.758165
LeftHand 1.271868 0.000000 -3.866509
LeftHandThumb1 -26.253704 0.000000 33.147579
RightShoulder -0.999627 -3.819820 2.698511
RightArm 11.123237 -36.593622 65.947211
RightForeArm -26.908570 -0.000000 23.333281
RightHand 2.045842 -0.000000 8.279335
RightHandThumb1 -24.326973 -0.000000 -32.862282
LeftUpLeg 12.917387 17.274915 8.447978
LeftLeg -9.072516 -0.000000 0.000000
LeftFoot -14.750872 29.529801 -7.314282
LeftToeBase 23.121149 -0.000000 -0.000000
RightUpLeg 8.142853 -4.234414 2.959101
RightLeg -4.316263 -0.000000 0.000000
RightFoot -3.229342 -22.378843 5.237705
RightToeBase 13.798255 -0.000000 -0.000000
1010
root -5.749466 35.243813 -10.762409 -3.095030 -9.729869 -6.200818
Spine 3.867003 1.381060 9.448907
Head 5.039623 7.584003 -6.321598
LeftShoulder -18.468655 16.169571 -16.627835
LeftArm 26.991354 19.402644 -65.495442
LeftForeArm 12.372728 -0.000000 14.766665
LeftHand 1.177617 -0.000000 -4.623491
LeftHandThumb1 -26.253704 0.000000 33.147579
RightShoulder -1.031829 -4.035152 2.693439
RightArm 11.409360 -36.618422 65.767972
RightForeArm -26.827377 -0.000000 23.388079
RightHand 2.010972 -0.000000 8.138029
RightHandThumb1 -24.326973 -0.000000 -32.862282
LeftUpLeg 12.972539 17.276734 8.477080
LeftLeg -9.025815 -0.000000 0.000000
LeftFoot -14.785345 29.516259 -7.333712
LeftToeBase 23.088413 -0.000000 -0.000000
RightUpLeg 8.208455 -4.239778 2.960834
RightLeg -4.299304 -0.000000 0.000000
RightFoot -3.250091 -22.391184 5.261581
RightToeBase 13.809307 -0.000000 -0.000000
